<svg xmlns="http://www.w3.org/2000/svg" width="24.466" height="24.466" viewBox="0 0 24.466 24.466">
  <path id="パス_240" data-name="パス 240" d="M12.233,2.2c3.266,0,3.654.012,4.944.071C20.492,2.427,22.04,4,22.191,7.291c.059,1.29.07,1.677.07,4.943s-.012,3.654-.07,4.943c-.152,3.288-1.7,4.864-5.014,5.014-1.291.059-1.676.071-4.944.071s-3.654-.012-4.943-.071c-3.323-.152-4.864-1.732-5.014-5.015C2.216,15.886,2.2,15.5,2.2,12.233s.013-3.653.071-4.943C2.427,4,3.972,2.426,7.29,2.275,8.58,2.217,8.967,2.2,12.233,2.2Zm0-2.2C8.911,0,8.495.014,7.19.073,2.747.277.278,2.742.074,7.189.014,8.495,0,8.911,0,12.233s.014,3.739.073,5.044c.2,4.443,2.669,6.912,7.115,7.115,1.306.059,1.722.073,5.044.073s3.739-.014,5.044-.073c4.438-.2,6.914-2.669,7.114-7.115.06-1.3.074-1.722.074-5.044s-.014-3.738-.073-5.043c-.2-4.438-2.668-6.912-7.114-7.115C15.972.014,15.555,0,12.233,0Zm0,5.951a6.282,6.282,0,1,0,6.282,6.282A6.282,6.282,0,0,0,12.233,5.951Zm0,10.359a4.078,4.078,0,1,1,4.078-4.078A4.077,4.077,0,0,1,12.233,16.31Zm6.53-12.075A1.468,1.468,0,1,0,20.23,5.7,1.469,1.469,0,0,0,18.763,4.236Z"/>
</svg>
